<svg width="101" height="76" viewBox="0 0 101 76" fill="none" xmlns="http://www.w3.org/2000/svg">
<path fill-rule="evenodd" clip-rule="evenodd" d="M98.3192 42.3055C98.3192 45.1455 95.982 47.4566 93.11 47.4566H77.6842L76.7691 40.2448H89.811C90.4831 40.2448 91.0264 39.7075 91.0264 39.043V7.73043C91.0264 4.89039 93.3636 2.57916 96.2354 2.57916H98.3192V42.3055ZM62.6578 47.4566V45.3961C62.6578 42.5561 64.9932 40.2448 67.867 40.2448H74.3193L75.2344 47.4566H62.6578ZM56.2437 23.785H45.2578C44.8256 22.5213 43.7437 21.6628 42.6898 20.8265C41.0386 19.5165 39.3388 18.1668 39.0105 14.9953H62.4914C62.1631 18.1668 60.4614 19.5165 58.8102 20.8265C57.7563 21.6628 56.6744 22.5213 56.2437 23.785ZM33.633 40.2448C36.5049 40.2448 38.8422 42.5561 38.8422 45.3961V47.4566H26.2656L27.1807 40.2448H33.633ZM23.8158 47.4566H8.38995C5.51802 47.4566 3.18085 45.1455 3.18085 42.3055V2.57916H5.26453C8.13646 2.57916 10.4736 4.89039 10.4736 7.73043V39.043C10.4736 39.7075 11.017 40.2448 11.6889 40.2448H24.7308L23.8158 47.4566ZM99.5344 0.175293H96.2354C92.023 0.175293 88.5956 3.56481 88.5956 7.73043V37.841H76.4636L74.9842 26.189H81.1675C81.8395 26.189 82.3827 25.6515 82.3827 24.987C82.3827 24.3243 81.8395 23.785 81.1675 23.785H59.0688C59.3744 23.4691 59.7964 23.1256 60.3329 22.7015C62.2812 21.1545 64.9463 19.0391 64.9776 13.9411C65.0193 13.6045 64.9169 13.2662 64.6929 13.0086C64.462 12.7442 64.1253 12.5915 63.771 12.5915H37.729C37.3766 12.5915 37.0397 12.7442 36.8088 13.0086C36.5847 13.2662 36.4807 13.6045 36.5241 13.9411C36.5536 19.0391 39.2188 21.1545 41.1686 22.7015C41.7053 23.1256 42.1273 23.4691 42.4329 23.785H20.3308C19.6607 23.785 19.1154 24.3243 19.1154 24.987C19.1154 25.6515 19.6607 26.189 20.3308 26.189H26.5158L25.0364 37.841H12.9045V7.73043C12.9045 3.56481 9.47692 0.175293 5.26453 0.175293H1.96553C1.29356 0.175293 0.75 0.712771 0.75 1.37728V42.3055C0.75 46.1465 3.66531 49.3265 7.42103 49.7986L4.37032 73.824C4.28698 74.4816 4.75915 75.0826 5.42592 75.165C5.47627 75.172 5.52846 75.1753 5.57881 75.1753C6.18307 75.1753 6.70566 74.7306 6.7838 74.1228L9.8641 49.8605H23.5102L20.4681 73.824C20.3847 74.4816 20.8569 75.0826 21.522 75.165C21.5741 75.172 21.6244 75.1753 21.6747 75.1753C22.279 75.1753 22.8036 74.7306 22.8798 74.1228L25.96 49.8605H32.3325L35.4127 74.1228C35.491 74.7306 36.0136 75.1753 36.6178 75.1753C36.6681 75.1753 36.7186 75.172 36.7707 75.165C37.4375 75.0826 37.908 74.4816 37.8246 73.824L34.7825 49.8605H40.0575C40.7295 49.8605 41.2731 49.3231 41.2731 48.6586V45.3961C41.2731 41.2305 37.8454 37.841 33.633 37.841H27.4863L28.9658 26.189H72.5342L74.0137 37.841H67.867C63.6529 37.841 60.227 41.2305 60.227 45.3961V48.6586C60.227 49.3231 60.7705 49.8605 61.4425 49.8605H66.7175L63.6737 73.824C63.5903 74.4816 64.0625 75.0826 64.7293 75.165C64.7797 75.172 64.8319 75.1753 64.8822 75.1753C65.4864 75.1753 66.0092 74.7306 66.0856 74.1228L69.1675 49.8605H75.54L78.6202 74.1228C78.6983 74.7306 79.221 75.1753 79.8253 75.1753C79.8756 75.1753 79.9259 75.172 79.978 75.165C80.6447 75.0826 81.1153 74.4816 81.0319 73.824L77.9898 49.8605H91.6359L94.7163 74.1228C94.7944 74.7306 95.317 75.1753 95.9212 75.1753C95.9715 75.1753 96.022 75.172 96.0741 75.165C96.7392 75.0826 97.2114 74.4816 97.128 73.824L94.0773 49.7986C97.8347 49.3265 100.75 46.1465 100.75 42.3055V1.37728C100.75 0.712771 100.206 0.175293 99.5344 0.175293Z" fill="#EB5976"/>
</svg>
