<svg width="101" height="101" viewBox="0 0 101 101" fill="none" xmlns="http://www.w3.org/2000/svg">
<path d="M99.0011 93.1975H86.2258V40.639C86.2258 39.7542 85.4426 39.0366 84.4769 39.0366H75.2532L63.9573 29.5462C64.1267 29.2792 64.2109 28.971 64.1928 28.6572C63.8434 22.656 58.8457 17.8504 52.4989 17.0949V11.9211L65.1285 8.16241C65.8438 7.94956 66.3305 7.34118 66.337 6.65216C66.3434 5.96287 65.8683 5.34729 65.1568 5.12295L51.319 0.762329C50.7844 0.594079 50.1945 0.672596 49.7342 0.97331C49.2743 1.27402 49.0012 1.75981 49.0012 2.27765V3.24415L49.0009 17.0949C42.654 17.8502 37.6566 22.6557 37.3069 28.6572C37.2885 28.9707 37.373 29.2786 37.5421 29.5457L26.2468 39.0366H17.0231C16.0574 39.0366 15.2742 39.7542 15.2742 40.639V93.1975H2.49885C1.53319 93.1975 0.75 93.9151 0.75 94.7999V99.0729C0.75 99.9577 1.53319 100.675 2.49885 100.675H99.0011C99.9668 100.675 100.75 99.9577 100.75 99.0729V94.7999C100.75 93.9148 99.9668 93.1975 99.0011 93.1975ZM52.4989 8.55152V4.52339L59.0734 6.59501L52.4989 8.55152ZM50.75 20.1931C55.4136 20.1931 59.359 23.133 60.429 27.1403H41.0713C42.141 23.133 46.0864 20.1931 50.75 20.1931ZM40.9302 30.345H60.5698L71.659 39.0366H29.8416L40.9302 30.345ZM18.7719 42.2414H27.6299H73.8707H73.8765H82.7284V93.1975H63.9401V63.5697C63.9401 56.9059 58.0232 51.4845 50.7503 51.4845C43.4777 51.4845 37.5607 56.9059 37.5607 63.5697V93.1972H18.7722L18.7719 42.2414ZM60.4422 93.1975H41.0581V63.5697C41.0581 58.673 45.4058 54.6892 50.75 54.6892C56.0942 54.6892 60.4422 58.673 60.4422 63.5697V93.1975ZM97.2523 97.4705H4.24771V96.4023H17.0231H39.3093H62.191H84.4769H97.2523V97.4705Z" fill="#EB5976"/>
</svg>
